<svg viewBox="0 0 30 30" fill="none" xmlns="http://www.w3.org/2000/svg">

   <g transform="translate(1 1)" stroke-width="3">
			<path opacity="0.4" fill-rule="evenodd" clip-rule="evenodd" d="M4.33329 15C4.33329 20.8815 9.11845 25.6666 15 25.6666C20.8815 25.6666 25.6666 20.8815 25.6666 15C25.6666 9.11845 20.8815 4.3333 15 4.3333C9.11845 4.3333 4.33329 9.11845 4.33329 15ZM21.3564 10.1425C24.035 13.6476 23.3626 18.6778 19.8575 21.3564C16.3523 24.035 11.3221 23.3626 8.64349 19.8575C5.96491 16.3523 6.63729 11.3221 10.1425 8.6435C13.6476 5.96491 18.6778 6.6373 21.3564 10.1425Z" fill="#BDC2C3"/>
			<path d="M6.5246 21.4767L8.64343 19.8575C11.322 23.3627 16.3522 24.035 19.8574 21.3565L21.4766 23.4753C16.8034 27.0465 10.0958 26.1499 6.5246 21.4767Z" fill="#49DBB4">
				<animateTransform
                    attributeName="transform"
                    type="rotate"
                    from="0 15 15"
                    to="360 15 15"
                    dur="1s"
                    repeatCount="indefinite"/>
			
			</path>
        </g>

</svg>
