<svg width="111" height="66" viewBox="0 0 111 66" fill="none" xmlns="http://www.w3.org/2000/svg">
<path d="M24.6459 35.3806H17.386V30.8392H37.1548V35.3806H29.8949V45.1046H24.6459V35.3806Z" fill="black"/>
<path d="M27.4507 26.1857C28.9043 26.1857 30.0827 25.0073 30.0827 23.5534C30.0827 22.0998 28.9043 20.9214 27.4507 20.9214C25.997 20.9214 24.8186 22.0998 24.8186 23.5534C24.8186 25.0073 25.997 26.1857 27.4507 26.1857Z" fill="black"/>
<path fill-rule="evenodd" clip-rule="evenodd" d="M26.9831 54.0787C38.6339 54.0787 48.0787 44.6339 48.0787 32.9831C48.0787 21.3322 38.6339 11.8872 26.9831 11.8872C15.3322 11.8872 5.8872 21.3322 5.8872 32.9831C5.8872 44.6339 15.3322 54.0787 26.9831 54.0787ZM26.9831 59.9659C41.8853 59.9659 53.9659 47.8853 53.9659 32.9831C53.9659 18.0807 41.8853 6 26.9831 6C12.0807 6 0 18.0807 0 32.9831C0 47.8853 12.0807 59.9659 26.9831 59.9659Z" fill="black"/>
<mask id="path-4-outside-1" maskUnits="userSpaceOnUse" x="44.9143" y="0" width="66" height="66" fill="black">
<rect fill="white" x="44.9143" width="66" height="66"/>
<path fill-rule="evenodd" clip-rule="evenodd" d="M77.8974 54.0787C89.5482 54.0787 98.993 44.6339 98.993 32.9831C98.993 21.3322 89.5482 11.8872 77.8974 11.8872C66.2465 11.8872 56.8015 21.3322 56.8015 32.9831C56.8015 44.6339 66.2465 54.0787 77.8974 54.0787ZM77.8974 59.9659C92.7996 59.9659 104.88 47.8853 104.88 32.9831C104.88 18.0807 92.7996 6 77.8974 6C62.995 6 50.9143 18.0807 50.9143 32.9831C50.9143 47.8853 62.995 59.9659 77.8974 59.9659Z"/>
</mask>
<path fill-rule="evenodd" clip-rule="evenodd" d="M77.8974 54.0787C89.5482 54.0787 98.993 44.6339 98.993 32.9831C98.993 21.3322 89.5482 11.8872 77.8974 11.8872C66.2465 11.8872 56.8015 21.3322 56.8015 32.9831C56.8015 44.6339 66.2465 54.0787 77.8974 54.0787ZM77.8974 59.9659C92.7996 59.9659 104.88 47.8853 104.88 32.9831C104.88 18.0807 92.7996 6 77.8974 6C62.995 6 50.9143 18.0807 50.9143 32.9831C50.9143 47.8853 62.995 59.9659 77.8974 59.9659Z" fill="black"/>
<path d="M77.8974 60.0787C92.8619 60.0787 104.993 47.9476 104.993 32.9831H92.993C92.993 41.3202 86.2345 48.0787 77.8974 48.0787V60.0787ZM104.993 32.9831C104.993 18.0186 92.862 5.8872 77.8974 5.8872V17.8872C86.2344 17.8872 92.993 24.6458 92.993 32.9831H104.993ZM77.8974 5.8872C62.9328 5.8872 50.8015 18.0185 50.8015 32.9831H62.8015C62.8015 24.6459 69.5602 17.8872 77.8974 17.8872V5.8872ZM50.8015 32.9831C50.8015 47.9477 62.9329 60.0787 77.8974 60.0787V48.0787C69.5602 48.0787 62.8015 41.3201 62.8015 32.9831H50.8015ZM77.8974 65.9659C96.1133 65.9659 110.88 51.199 110.88 32.9831H98.8802C98.8802 44.5716 89.4859 53.9659 77.8974 53.9659V65.9659ZM110.88 32.9831C110.88 14.767 96.1133 0 77.8974 0V12C89.4858 12 98.8802 21.3943 98.8802 32.9831H110.88ZM77.8974 0C59.6813 0 44.9143 14.7669 44.9143 32.9831H56.9143C56.9143 21.3944 66.3087 12 77.8974 12V0ZM44.9143 32.9831C44.9143 51.199 59.6813 65.9659 77.8974 65.9659V53.9659C66.3086 53.9659 56.9143 44.5715 56.9143 32.9831H44.9143Z" fill="#F4F8F9" mask="url(#path-4-outside-1)"/>
<path d="M86.4627 28.5699C86.2872 28.2407 85.9452 28.0351 85.573 28.0351H80.8582L82.5085 22.2362C82.5952 21.9303 82.5347 21.6021 82.3441 21.3478C82.1534 21.0936 81.8548 20.9447 81.5381 20.9447H74.477C74.0221 20.9447 73.6236 21.2506 73.5036 21.6912L70.4774 32.8333C70.3947 33.1382 70.4583 33.4643 70.6489 33.7145C70.8406 33.9647 71.1361 34.1126 71.4508 34.1126H76.2947L74.4932 44.0604C74.4074 44.5325 74.6636 45.0004 75.1075 45.1807C75.2315 45.2314 75.3597 45.2547 75.4857 45.2547C75.8156 45.2547 76.1344 45.0926 76.326 44.8039L86.4133 29.6102C86.619 29.2992 86.6382 28.9001 86.4627 28.5699Z" fill="#E8A830"/>
</svg>
