<?xml version="1.0" encoding="UTF-8"?>
<!DOCTYPE svg PUBLIC "-//W3C//DTD SVG 1.1//EN" "http://www.w3.org/Graphics/SVG/1.1/DTD/svg11.dtd"><svg xmlns="http://www.w3.org/2000/svg" xmlns:xlink="http://www.w3.org/1999/xlink">
  <symbol id="icon-bored" viewBox="0 0 47 47">
    <path d="M37.1045 19.314C37.1045 21.6259 35.2304 23.5 32.9185 23.5C30.6066 23.5 28.7324 21.6259 28.7324 19.314" stroke-width="1.5" stroke-linecap="round" stroke-linejoin="round" />
    <path d="M18.2676 19.314C18.2676 21.6259 16.3934 23.5 14.0816 23.5C11.7697 23.5 9.89551 21.6259 9.89551 19.314" stroke-width="1.5" stroke-linecap="round" stroke-linejoin="round" />
    <path d="M18.791 35.5349C18.791 33.223 20.6651 31.3489 22.977 31.3489C25.2889 31.3489 27.1631 33.223 27.1631 35.5349" stroke-width="1.5" stroke-linecap="round" stroke-linejoin="round" />
    <circle cx="23.5002" cy="23.5001" r="21.9767" stroke-width="1.5" stroke-linecap="round" stroke-linejoin="round" />
  </symbol>
  <symbol id="icon-clock" viewBox="0 0 47 47">
    <circle cx="23.5" cy="23.5" r="22" stroke-width="1.5" stroke-linecap="round" stroke-linejoin="round" />
    <path d="M23.5 9.5V23.5H37.5" stroke-width="1.5" stroke-linecap="round" stroke-linejoin="round" />
  </symbol>
  <symbol id="icon-code" viewBox="0 0 25 25">
    <path fill-rule="evenodd" clip-rule="evenodd" d="M1.70718 9.70718C1.51963 9.89473 1.26524 10.0001 1 10C0.734762 10.0001 0.480368 9.89473 0.292817 9.70718C0.105266 9.51963 -6.89548e-05 9.26524 0 9V3C0.00180775 1.3439 1.3439 0.00180771 3 0H9C9.55229 0 10 0.447715 10 1C10 1.55228 9.55229 2 9 2H3C2.44794 2.00055 2.00055 2.44794 2 3V9C2.00007 9.26524 1.89473 9.51963 1.70718 9.70718ZM4.80371 4H11.1963C11.6105 4.00011 11.9462 4.33583 11.9463 4.75V11.25C11.9462 11.6642 11.6105 11.9999 11.1963 12H4.80371C4.38954 11.9999 4.05382 11.6642 4.05371 11.25V4.75C4.05382 4.33583 4.38954 4.00011 4.80371 4ZM5.55371 10.5H10.4463V5.5H5.55371V10.5ZM9 7H7V9H9V7ZM11.1963 13H4.80371C4.38954 13.0001 4.05382 13.3358 4.05371 13.75V20.25C4.05382 20.6642 4.38954 20.9999 4.80371 21H11.1963C11.6105 20.9999 11.9462 20.6642 11.9463 20.25V13.75C11.9462 13.3358 11.6105 13.0001 11.1963 13ZM5.55371 19.5H10.4463V14.5H5.55371V19.5ZM9 16H7V18H9V16ZM3 23H9C9.55229 23 10 23.4477 10 24C10 24.5523 9.55229 25 9 25H3C1.3439 24.9982 0.00180775 23.6561 0 22V16C0 15.4477 0.447715 15 1 15C1.55228 15 2 15.4477 2 16V22C2.00055 22.5521 2.44794 22.9994 3 23ZM24 15C23.7348 14.9999 23.4804 15.1053 23.2928 15.2928C23.1053 15.4804 22.9999 15.7348 23 16V22C22.9994 22.5521 22.5521 22.9994 22 23H16C15.4477 23 15 23.4477 15 24C15 24.5523 15.4477 25 16 25H22C23.6561 24.9982 24.9982 23.6561 25 22V16C25.0001 15.7348 24.8947 15.4804 24.7072 15.2928C24.5196 15.1053 24.2652 14.9999 24 15ZM13.5 18.5H15.5V20.5H13.5V18.5ZM13.5 15.4944H15.5V13.4944H13.5V15.4944ZM16 0H22C23.6561 0.00180771 24.9982 1.3439 25 3V9C25 9.55229 24.5523 10 24 10C23.4477 10 23 9.55229 23 9V3C22.9994 2.44794 22.5521 2.00055 22 2H16C15.4477 2 15 1.55228 15 1C15 0.447715 15.4477 0 16 0ZM16 9H18V7H16V9ZM18 16V18H16V16H18ZM20.1963 12C20.6105 11.9999 20.9462 11.6642 20.9463 11.25V4.75C20.9462 4.33583 20.6105 4.00011 20.1963 4H13.8037C13.3895 4.00011 13.0538 4.33583 13.0537 4.75V11.25C13.0538 11.6642 13.3895 11.9999 13.8037 12H20.1963ZM19.4463 5.5H14.5537V10.5H19.4463V5.5ZM20.5 13.4944H18.5V15.4944H20.5V13.4944ZM20.5 20.5H18.5V18.5H20.5V20.5Z" />
  </symbol>
  <symbol id="icon-direction" viewBox="0 0 26 26">
    <path d="M8.03442 7.20688H24.5861" stroke-width="1.5" stroke-linecap="round" stroke-linejoin="round" />
    <path d="M17.9655 18.7931H1.41382" stroke-width="1.5" stroke-linecap="round" stroke-linejoin="round" />
    <path d="M18.7932 1.41382L24.5863 7.20692L18.7932 13" stroke-width="1.5" stroke-linecap="round" stroke-linejoin="round" />
    <path d="M7.20692 24.5862L1.41382 18.7931L7.20692 13" stroke-width="1.5" stroke-linecap="round" stroke-linejoin="round" />
  </symbol>
  <symbol id="icon-flash" viewBox="0 0 10 15">
    <path d="M9.74907 4.53885C9.65156 4.35596 9.46159 4.24173 9.2548 4.24173H6.63548L7.55229 1.02009C7.60049 0.850149 7.56686 0.667824 7.46095 0.526579C7.35503 0.385334 7.18915 0.302612 7.01319 0.302612H3.09037C2.83763 0.302612 2.61627 0.472557 2.54958 0.717345L0.868371 6.90738C0.822418 7.07676 0.857723 7.25796 0.963639 7.39696C1.07012 7.53595 1.23431 7.61811 1.40916 7.61811H4.10021L3.09933 13.1447C3.0517 13.4069 3.19404 13.6669 3.44062 13.7671C3.50955 13.7952 3.58072 13.8081 3.65077 13.8081C3.83402 13.8081 4.01111 13.7181 4.11759 13.5577L9.72161 5.11677C9.83593 4.94401 9.84658 4.7223 9.74907 4.53885Z" />
  </symbol>
  <symbol id="icon-gear" viewBox="0 0 18 18">
    <path fill-rule="evenodd" clip-rule="evenodd" d="M16.652 8.99995C16.652 8.23126 16.0294 7.60865 15.2607 7.60865H14.3828C14.2513 7.09943 14.051 6.61943 13.7901 6.177L14.4106 5.55647C14.9539 5.01317 14.9539 4.13247 14.4106 3.58917C13.8673 3.04587 12.9866 3.04587 12.4433 3.58917L11.8228 4.20969C11.3804 3.94882 10.9004 3.74847 10.3911 3.617V2.73908C10.3911 1.97108 9.76853 1.34778 8.99983 1.34778C8.23113 1.34778 7.60853 1.97039 7.60853 2.73908V3.617C7.09931 3.74847 6.61931 3.94882 6.17687 4.20969L5.55635 3.58917C5.01305 3.04587 4.13235 3.04587 3.58905 3.58917C3.04574 4.13247 3.04574 5.01317 3.58905 5.55647L4.20957 6.177C3.9487 6.61943 3.74835 7.09943 3.61687 7.60865H2.73896C1.97096 7.60865 1.34766 8.23126 1.34766 8.99995C1.34766 9.76865 1.97026 10.3913 2.73896 10.3913H3.61687C3.74835 10.9005 3.9487 11.3805 4.20957 11.8229L3.58905 12.4434C3.04574 12.9867 3.04574 13.8674 3.58905 14.4107C4.13235 14.954 5.01305 14.954 5.55635 14.4107L6.17687 13.7902C6.61861 14.0511 7.09931 14.2514 7.60853 14.3829V15.2608C7.60853 16.0288 8.23113 16.6521 8.99983 16.6521C9.76853 16.6521 10.3911 16.0295 10.3911 15.2608V14.3829C10.9004 14.2514 11.3804 14.0511 11.8228 13.7902L12.4433 14.4107C12.9866 14.954 13.8673 14.954 14.4106 14.4107C14.9539 13.8674 14.9539 12.9867 14.4106 12.4434L13.7901 11.8229C14.051 11.3812 14.2513 10.9005 14.3828 10.3913H15.2607C16.0287 10.3913 16.652 9.76865 16.652 8.99995Z" stroke-linecap="round" stroke-linejoin="round" />
    <circle cx="9.00004" cy="9.00004" r="2.08696" stroke-linecap="round" stroke-linejoin="round" />
  </symbol>
  <symbol id="icon-man" viewBox="0 0 12 14">
    <path d="M4.69222 8.32255H0.658936V5.79956H11.6416V8.32255H7.60831V13.7248H4.69222V8.32255Z" />
    <path d="M6.25034 3.21422C7.0579 3.21422 7.71259 2.55954 7.71259 1.75186C7.71259 0.944298 7.0579 0.289612 6.25034 0.289612C5.44277 0.289612 4.78809 0.944298 4.78809 1.75186C4.78809 2.55954 5.44277 3.21422 6.25034 3.21422Z" />
  </symbol>
  <symbol id="icon-question" viewBox="0 0 6 9">
    <path fill-rule="evenodd" clip-rule="evenodd" d="M3.52316 4.63201L3.48993 5.75078H2.34901V4.07816C2.83639 4.01909 3.22593 3.93232 3.51762 3.81786C3.80932 3.7034 4.02162 3.5594 4.15455 3.38586C4.28747 3.21232 4.35393 2.99632 4.35393 2.73786C4.35393 2.42032 4.24132 2.1674 4.01608 1.97909C3.79085 1.79078 3.44562 1.69663 2.98039 1.69663C2.5447 1.69663 2.19024 1.81847 1.91701 2.06216C1.64378 2.30586 1.48132 2.64555 1.42962 3.08124L0.333008 2.58278C0.414239 2.19878 0.573008 1.86278 0.809316 1.57478C1.04562 1.28678 1.35208 1.06155 1.7287 0.899088C2.10532 0.736626 2.54839 0.655396 3.05793 0.655396C3.5527 0.655396 3.99393 0.731088 4.38162 0.882472C4.76932 1.03386 5.07208 1.25355 5.28993 1.54155C5.50778 1.82955 5.6167 2.17663 5.6167 2.58278C5.6167 3.01847 5.52255 3.38216 5.33424 3.67386C5.14593 3.96555 4.89301 4.18709 4.57547 4.33847C4.25793 4.48986 3.90716 4.5877 3.52316 4.63201ZM3.51762 7.96616C3.36624 8.10647 3.16501 8.17663 2.91393 8.17663C2.67024 8.17663 2.4727 8.10647 2.32132 7.96616C2.16993 7.82586 2.09424 7.63755 2.09424 7.40124C2.09424 7.16493 2.16993 6.97478 2.32132 6.83078C2.4727 6.68678 2.67024 6.61478 2.91393 6.61478C3.16501 6.61478 3.36624 6.68678 3.51762 6.83078C3.66901 6.97478 3.7447 7.16493 3.7447 7.40124C3.7447 7.63755 3.66901 7.82586 3.51762 7.96616Z" />
  </symbol>
  <symbol id="icon-success" viewBox="0 0 47 47">
    <path d="M11.5 23.5L19.5 31.5L35.5 15.5" stroke-width="1.5" stroke-linecap="round" stroke-linejoin="round" />
    <circle cx="23.5" cy="23.5" r="22" stroke-width="1.5" stroke-linecap="round" stroke-linejoin="round" />
  </symbol>
</svg>